<?xml version="1.0" encoding="utf-8"?>
<!-- Generator: Adobe Illustrator 16.0.0, SVG Export Plug-In . SVG Version: 6.00 Build 0)  -->
<!DOCTYPE svg PUBLIC "-//W3C//DTD SVG 1.1//EN" "http://www.w3.org/Graphics/SVG/1.1/DTD/svg11.dtd">
<svg version="1.1" id="Layer_1" xmlns="http://www.w3.org/2000/svg" xmlns:xlink="http://www.w3.org/1999/xlink" x="0px" y="0px"
	 width="315.757px" height="227.983px" viewBox="230.571 -35.802 315.757 227.983"
	 enable-background="new 230.571 -35.802 315.757 227.983" xml:space="preserve">
<g id="background">
</g>
<g id="objects">
	<g>
		<path fill="#296189" d="M358.657,12.541L231.09,86.201c-0.185,0.105-0.23,0.114-0.402,0.225l183.169,105.75
			c0.188-0.099,127.973-73.87,127.973-73.87c5.997-3.462,5.997-9.126,0-12.59L380.463,12.541
			C374.466,9.079,364.654,9.079,358.657,12.541z"/>
	</g>
	<path fill="#FFFFFF" d="M541.849,69.901l-129.507,75.888l-0.337,40.272l129.075-75.299c0,0-1.594-3.149-1.671-16.159
		C539.313,78.414,541.849,69.901,541.849,69.901z"/>
	<g>
		<g>
			<g>
				<defs>
					<path id="SVGID_1_" d="M541.849,69.901l-129.507,75.888l-0.337,40.272l129.075-75.299c0,0-1.594-3.149-1.671-16.159
						C539.313,78.414,541.849,69.901,541.849,69.901z"/>
				</defs>
				<clipPath id="SVGID_2_">
					<use xlink:href="#SVGID_1_"  overflow="visible"/>
				</clipPath>
				<g clip-path="url(#SVGID_2_)">
					<g>
						<g>
							<polygon fill="#E4E0D0" points="549.38,73.872 412,153.18 412,152.052 549.38,72.745 							"/>
						</g>
						<g>
							<polygon fill="#E4E0D0" points="549.38,77.256 412,156.565 412,155.436 549.38,76.127 							"/>
						</g>
						<g>
							<polygon fill="#E4E0D0" points="549.38,80.638 412,159.949 412,158.818 549.38,79.511 							"/>
						</g>
						<g>
							<polygon fill="#E4E0D0" points="549.383,84.02 412,163.329 412,162.203 549.383,82.895 							"/>
						</g>
						<g>
							<polygon fill="#E4E0D0" points="549.383,87.405 412.002,166.712 412.002,165.586 549.383,86.276 							"/>
						</g>
						<g>
							<polygon fill="#E4E0D0" points="549.383,90.787 412.002,170.096 412.002,168.969 549.383,89.659 							"/>
						</g>
						<g>
							<polygon fill="#E4E0D0" points="549.383,94.17 412.002,173.478 412.002,172.352 549.383,93.042 							"/>
						</g>
					</g>
					<g>
						<g>
							<polygon fill="#E4E0D0" points="549.612,97.35 412.232,176.659 412.232,175.531 549.612,96.223 							"/>
						</g>
						<g>
							<polygon fill="#E4E0D0" points="549.612,100.735 412.232,180.043 412.232,178.915 549.612,99.605 							"/>
						</g>
						<g>
							<polygon fill="#E4E0D0" points="549.612,104.117 412.232,183.427 412.232,182.296 549.612,102.991 							"/>
						</g>
						<g>
							<polygon fill="#E4E0D0" points="549.612,107.499 412.232,186.808 412.232,185.681 549.612,106.374 							"/>
						</g>
						<g>
							<polygon fill="#E4E0D0" points="549.612,110.883 412.232,190.191 412.232,189.065 549.612,109.754 							"/>
						</g>
						<g>
							<polygon fill="#E4E0D0" points="549.612,114.265 412.232,193.575 412.232,192.447 549.612,113.137 							"/>
						</g>
						<g>
							<polygon fill="#E4E0D0" points="549.612,117.649 412.232,196.957 412.232,195.831 549.612,116.521 							"/>
						</g>
					</g>
				</g>
			</g>
		</g>
	</g>
	<polygon fill="#3377A8" points="413.864,148.22 413.861,192.181 230.681,86.431 230.681,42.47 	"/>
	<polygon fill="#1E4561" points="251.671,58.469 251.668,94.667 238.04,86.798 238.042,50.599 	"/>
	<polygon fill="#1E4561" points="263.665,65.392 263.665,101.591 256.577,97.5 256.579,61.302 	"/>
	<polygon fill="#1E4561" points="403.752,147.784 403.75,180.943 397.258,177.196 397.261,144.037 	"/>
	<g>
		<path fill="#296189" d="M358.657-30.893L231.089,42.765c-0.185,0.106-0.345,0.221-0.518,0.331L413.689,148.83
			c0.191-0.1,0.39-0.192,0.574-0.3L541.83,74.873c5.996-3.463,5.996-9.127,0-12.593L380.463-30.893
			C374.466-34.354,364.654-34.354,358.657-30.893z"/>
		<polygon fill="#296189" points="397.682,6.172 305.186,59.58 279.379,44.681 371.877,-8.727 		"/>
		<polygon fill="#296189" points="468.449,87.655 446.303,100.442 440.125,96.875 462.273,84.086 		"/>
	</g>
	<path fill="#3985BC" d="M376.006-1.094l-96.188,55.541c-0.138,0.079-0.172,0.088-0.303,0.171l138.113,79.736
		c0.146-0.076,96.495-55.698,96.495-55.698c4.521-2.61,4.521-6.883,0-9.492L392.452-1.092C387.928-3.704,380.53-3.704,376.006-1.094
		z"/>
	<path fill="#367FB4" d="M513.971,69.233L392.296-1.021c-4.522-2.611-11.922-2.611-16.441,0L337.348,21.21l138.525,79.513
		l38.098-21.996C518.494,76.115,518.494,71.843,513.971,69.233z"/>
	<path fill="#FFFFFF" d="M514.14,42.154l-97.648,57.222l-0.257,30.367l97.325-56.775c0,0-1.2-2.374-1.259-12.183
		C512.227,48.575,514.14,42.154,514.14,42.154z"/>
	<path fill="#3985BC" d="M376.006-33.844l-96.188,55.54c-0.138,0.08-0.261,0.165-0.391,0.249l138.078,79.725
		c0.146-0.074,0.293-0.145,0.431-0.226l96.188-55.539c4.522-2.609,4.522-6.884,0-9.493L392.452-33.844
		C387.928-36.455,380.53-36.455,376.006-33.844z"/>
	<path fill="#367FB4" d="M514.125,36.411L392.452-33.844c-4.522-2.61-11.922-2.61-16.445,0L337.501-11.61l138.526,79.514
		l38.099-21.999C518.646,43.295,518.646,39.021,514.125,36.411z"/>
	<polygon fill="#1E4561" points="397.038,-11.217 331.619,26.556 325.076,22.779 390.495,-14.994 	"/>
	<g>
		<g>
			<g>
				<defs>
					<path id="SVGID_3_" d="M514.14,42.154l-97.648,57.222l-0.257,30.367l97.325-56.775c0,0-1.2-2.374-1.259-12.183
						C512.227,48.575,514.14,42.154,514.14,42.154z"/>
				</defs>
				<clipPath id="SVGID_4_">
					<use xlink:href="#SVGID_3_"  overflow="visible"/>
				</clipPath>
				<g clip-path="url(#SVGID_4_)">
					<g>
						<polygon fill="#E4E0D0" points="545.928,31.518 408.548,110.826 408.548,109.7 545.928,30.391 						"/>
					</g>
					<g>
						<polygon fill="#E4E0D0" points="545.928,34.903 408.549,114.211 408.549,113.082 545.928,33.773 						"/>
					</g>
					<g>
						<polygon fill="#E4E0D0" points="545.928,38.284 408.549,117.594 408.549,116.466 545.928,37.156 						"/>
					</g>
					<g>
						<polygon fill="#E4E0D0" points="545.928,41.668 408.549,120.975 408.549,119.848 545.928,40.541 						"/>
					</g>
					<g>
						<polygon fill="#E4E0D0" points="545.928,45.051 408.549,124.36 408.549,123.232 545.928,43.921 						"/>
					</g>
					<g>
						<polygon fill="#E4E0D0" points="545.928,48.434 408.549,127.742 408.549,126.614 545.928,47.307 						"/>
					</g>
					<g>
						<polygon fill="#E4E0D0" points="545.928,51.817 408.549,131.124 408.549,129.998 545.928,50.689 						"/>
					</g>
				</g>
			</g>
		</g>
	</g>
	<polygon fill="#3479AB" points="417.635,101.211 417.634,134.359 279.51,54.62 279.512,21.473 	"/>
	<polygon fill="#1E4561" points="295.337,33.536 295.337,60.83 285.06,54.895 285.06,27.605 	"/>
	<polygon fill="#1E4561" points="410.011,100.881 410.011,125.884 405.116,123.058 405.116,98.056 	"/>
	<path fill="#1E4561" d="M398.346,107.432c0,3.701-2.602,5.203-5.809,3.352s-5.807-6.354-5.805-10.055
		c0-3.704,2.601-5.204,5.805-3.354C395.745,99.226,398.346,103.73,398.346,107.432z"/>
</g>
</svg>
