<?xml version="1.0" encoding="utf-8"?>
<!-- Generator: Adobe Illustrator 16.0.0, SVG Export Plug-In . SVG Version: 6.00 Build 0)  -->
<!DOCTYPE svg PUBLIC "-//W3C//DTD SVG 1.1//EN" "http://www.w3.org/Graphics/SVG/1.1/DTD/svg11.dtd">
<svg version="1.1" xmlns="http://www.w3.org/2000/svg" xmlns:xlink="http://www.w3.org/1999/xlink" x="0px" y="0px"
	 width="214.626px" height="154.966px" viewBox="0 0 214.626 154.966" enable-background="new 0 0 214.626 154.966"
	 xml:space="preserve">
<g id="background">
</g>
<g id="objects">
	<g>
		<path fill="#296189" d="M87.063,32.86L0.352,82.928C0.227,83,0.196,83.007,0.078,83.081l124.505,71.88
			c0.129-0.067,86.986-50.21,86.986-50.21c4.076-2.354,4.076-6.204,0-8.558L101.885,32.86C97.809,30.507,91.139,30.507,87.063,32.86
			z"/>
	</g>
	<path fill="#FFFFFF" d="M211.583,71.849l-88.029,51.582l-0.229,27.375l87.735-51.183c0,0-1.083-2.14-1.136-10.983
		C209.859,77.635,211.583,71.849,211.583,71.849z"/>
	<g>
		<defs>
			<path id="SVGID_1_" d="M211.583,71.849l-88.029,51.582l-0.229,27.375l87.735-51.183c0,0-1.083-2.14-1.136-10.983
				C209.859,77.635,211.583,71.849,211.583,71.849z"/>
		</defs>
		<clipPath id="SVGID_2_">
			<use xlink:href="#SVGID_1_"  overflow="visible"/>
		</clipPath>
		<g clip-path="url(#SVGID_2_)">
			<g>
				<g>
					<polygon fill="#E4E0D0" points="216.702,74.548 123.322,128.456 123.322,127.689 216.702,73.782 					"/>
				</g>
				<g>
					<polygon fill="#E4E0D0" points="216.702,76.848 123.322,130.756 123.322,129.989 216.702,76.081 					"/>
				</g>
				<g>
					<polygon fill="#E4E0D0" points="216.702,79.147 123.322,133.056 123.322,132.288 216.702,78.381 					"/>
				</g>
				<g>
					<polygon fill="#E4E0D0" points="216.703,81.446 123.322,135.354 123.322,134.589 216.703,80.681 					"/>
				</g>
				<g>
					<polygon fill="#E4E0D0" points="216.703,83.746 123.323,137.654 123.323,136.888 216.703,82.979 					"/>
				</g>
				<g>
					<polygon fill="#E4E0D0" points="216.703,86.046 123.323,139.954 123.323,139.188 216.703,85.279 					"/>
				</g>
				<g>
					<polygon fill="#E4E0D0" points="216.703,88.345 123.323,142.253 123.323,141.487 216.703,87.579 					"/>
				</g>
			</g>
			<g>
				<g>
					<polygon fill="#E4E0D0" points="216.859,90.507 123.479,144.415 123.479,143.648 216.859,89.741 					"/>
				</g>
				<g>
					<polygon fill="#E4E0D0" points="216.859,92.807 123.479,146.715 123.479,145.948 216.859,92.04 					"/>
				</g>
				<g>
					<polygon fill="#E4E0D0" points="216.859,95.106 123.479,149.015 123.479,148.247 216.859,94.34 					"/>
				</g>
				<g>
					<polygon fill="#E4E0D0" points="216.859,97.405 123.479,151.313 123.479,150.548 216.859,96.64 					"/>
				</g>
				<g>
					<polygon fill="#E4E0D0" points="216.859,99.705 123.479,153.613 123.479,152.847 216.859,98.938 					"/>
				</g>
				<g>
					<polygon fill="#E4E0D0" points="216.859,102.005 123.479,155.913 123.479,155.146 216.859,101.238 					"/>
				</g>
				<g>
					<polygon fill="#E4E0D0" points="216.859,104.304 123.479,158.212 123.479,157.446 216.859,103.538 					"/>
				</g>
			</g>
		</g>
	</g>
	<polygon fill="#3377A8" points="124.588,125.085 124.587,154.966 0.074,83.085 0.075,53.203 	"/>
	<polygon fill="#1E4561" points="14.342,64.078 14.341,88.683 5.077,83.334 5.078,58.729 	"/>
	<polygon fill="#1E4561" points="22.495,68.784 22.494,93.389 17.677,90.608 17.678,66.004 	"/>
	<polygon fill="#1E4561" points="117.715,124.788 117.714,147.327 113.302,144.78 113.303,122.241 	"/>
	<g>
		<path fill="#296189" d="M87.063,3.337L0.352,53.404C0.227,53.476,0.117,53.554,0,53.629l124.47,71.869
			c0.13-0.067,0.264-0.131,0.39-0.203l86.71-50.067c4.076-2.354,4.076-6.204,0-8.559L101.885,3.337
			C97.809,0.984,91.139,0.984,87.063,3.337z"/>
		<polygon fill="#296189" points="113.588,28.531 50.717,64.833 33.177,54.706 96.049,18.404 		"/>
		<polygon fill="#296189" points="161.691,83.916 146.638,92.608 142.438,90.183 157.492,81.491 		"/>
	</g>
	<path fill="#3985BC" d="M98.856,23.592L33.475,61.344c-0.094,0.054-0.117,0.06-0.206,0.116l93.879,54.198
		c0.098-0.051,65.59-37.858,65.59-37.858c3.074-1.775,3.074-4.679,0-6.453l-82.705-47.754
		C106.959,21.818,101.93,21.818,98.856,23.592z"/>
	<path fill="#367FB4" d="M192.633,71.395l-82.705-47.754c-3.074-1.775-8.103-1.775-11.176,0L72.578,38.753l94.16,54.047
		l25.896-14.952C195.707,76.073,195.707,73.169,192.633,71.395z"/>
	<path fill="#FFFFFF" d="M192.748,52.989l-66.375,38.895l-0.173,20.641l66.154-38.592c0,0-0.816-1.613-0.855-8.281
		C191.448,57.353,192.748,52.989,192.748,52.989z"/>
	<path fill="#3985BC" d="M98.856,1.331L33.475,39.083c-0.094,0.054-0.177,0.112-0.265,0.169l93.854,54.19
		c0.098-0.051,0.199-0.098,0.293-0.152l65.381-37.752c3.074-1.774,3.074-4.679,0-6.453L110.033,1.331
		C106.959-0.444,101.93-0.444,98.856,1.331z"/>
	<path fill="#367FB4" d="M192.738,49.085L110.033,1.331c-3.074-1.775-8.103-1.775-11.177,0L72.683,16.444l94.16,54.047
		l25.896-14.953C195.812,53.764,195.812,50.859,192.738,49.085z"/>
	<polygon fill="#1E4561" points="113.151,16.711 68.684,42.386 64.237,39.819 108.704,14.144 	"/>
	<g>
		<defs>
			<path id="SVGID_3_" d="M192.748,52.989l-66.375,38.895l-0.173,20.641l66.154-38.592c0,0-0.816-1.613-0.855-8.281
				C191.448,57.353,192.748,52.989,192.748,52.989z"/>
		</defs>
		<clipPath id="SVGID_4_">
			<use xlink:href="#SVGID_3_"  overflow="visible"/>
		</clipPath>
		<g clip-path="url(#SVGID_4_)">
			<g>
				<polygon fill="#E4E0D0" points="214.355,45.759 120.975,99.667 120.975,98.901 214.355,44.993 				"/>
			</g>
			<g>
				<polygon fill="#E4E0D0" points="214.355,48.06 120.976,101.967 120.976,101.2 214.355,47.292 				"/>
			</g>
			<g>
				<polygon fill="#E4E0D0" points="214.355,50.358 120.976,104.267 120.976,103.5 214.355,49.592 				"/>
			</g>
			<g>
				<polygon fill="#E4E0D0" points="214.355,52.658 120.976,106.565 120.976,105.8 214.355,51.892 				"/>
			</g>
			<g>
				<polygon fill="#E4E0D0" points="214.355,54.958 120.976,108.866 120.976,108.099 214.355,54.19 				"/>
			</g>
			<g>
				<polygon fill="#E4E0D0" points="214.355,57.257 120.976,111.165 120.976,110.398 214.355,56.491 				"/>
			</g>
			<g>
				<polygon fill="#E4E0D0" points="214.355,59.557 120.976,113.464 120.976,112.698 214.355,58.79 				"/>
			</g>
		</g>
	</g>
	<polygon fill="#3479AB" points="127.152,93.131 127.151,115.662 33.265,61.462 33.266,38.931 	"/>
	<polygon fill="#1E4561" points="44.023,47.131 44.023,65.683 37.038,61.649 37.038,43.099 	"/>
	<polygon fill="#1E4561" points="121.969,92.907 121.969,109.902 118.642,107.981 118.642,90.987 	"/>
	<path fill="#1E4561" d="M114.039,97.36c0,2.516-1.767,3.536-3.946,2.277c-2.18-1.258-3.947-4.318-3.946-6.834
		c0-2.518,1.767-3.537,3.946-2.279C112.272,91.782,114.04,94.843,114.039,97.36z"/>
</g>
</svg>
