<?xml version="1.0" encoding="utf-8"?>
<!-- Generator: Adobe Illustrator 16.0.0, SVG Export Plug-In . SVG Version: 6.00 Build 0)  -->
<!DOCTYPE svg PUBLIC "-//W3C//DTD SVG 1.1//EN" "http://www.w3.org/Graphics/SVG/1.1/DTD/svg11.dtd">
<svg version="1.1" id="Layer_2" xmlns="http://www.w3.org/2000/svg" xmlns:xlink="http://www.w3.org/1999/xlink" x="0px" y="0px"
	 max-width="243.595px" height="61.799px" viewBox="0 0 243.595 61.799" enable-background="new 0 0 243.595 61.799"
	 xml:space="preserve">
<polygon fill="#0699F4" points="222.017,10.15 193.614,35.442 196.616,37.942 200.066,39.009 200.923,42.859 204.816,44.41 
	205.837,51.118 234.561,23.906 234.561,14.108 229.318,11.31 224.1,8.914 "/>
<path fill="#E87060" d="M235.273,20.438c0,0-2.597-8.927-6.006-9.739c-3.408-0.812-7.953-1.786-7.953-1.786s5.194-6.979,9.252-6.979
	s10.063,4.058,10.063,4.058l1.623,5.194l-3.409,5.519L235.273,20.438z"/>
<g>
	<path fill="#004A87" d="M17.56,23.906c3.555,0,6.374,0.865,8.461,2.595c2.084,1.731,3.127,4.159,3.127,7.287
		c0,2.086-0.451,3.923-1.351,5.51c-0.901,1.589-2.015,2.833-3.341,3.732c-1.328,0.901-2.939,1.635-4.834,2.204
		c-3.176,0.948-6.754,1.422-10.735,1.422c0.142,2.513,0.924,4.539,2.346,6.079c1.422,1.541,3.601,2.311,6.541,2.311
		c2.938,0,5.876-1.042,8.816-3.128l2.701,5.758c-0.949,0.854-2.549,1.731-4.799,2.631c-2.251,0.9-4.823,1.351-7.714,1.351
		c-5.783,0-10.024-1.6-12.726-4.799C1.351,53.658,0,49.263,0,43.669c0-5.591,1.54-10.284,4.621-14.076
		C7.701,25.802,12.015,23.906,17.56,23.906z M14.326,40.151c1.729-0.308,3.329-0.996,4.798-2.062
		c1.468-1.066,2.204-2.334,2.204-3.804c0-2.89-1.421-4.337-4.265-4.337c-2.655,0-4.692,1.056-6.115,3.164
		c-1.421,2.109-2.203,4.633-2.346,7.572C10.688,40.637,12.595,40.459,14.326,40.151z"/>
	<path fill="#004A87" d="M50.974,30.375c-1.137-0.427-2.512-0.64-4.124-0.64c-1.612,0-2.903,0.368-3.874,1.102
		c-0.973,0.735-1.458,1.635-1.458,2.702s0.178,1.896,0.534,2.488c0.355,0.594,0.912,1.102,1.67,1.529
		c1.184,0.617,2.607,1.15,4.266,1.6c1.659,0.451,2.891,0.807,3.698,1.066c0.804,0.261,1.812,0.7,3.021,1.315
		c1.21,0.617,2.12,1.28,2.738,1.991c1.658,1.753,2.488,4.006,2.488,6.754c0,3.555-1.292,6.339-3.874,8.353
		c-2.584,2.015-5.866,3.022-9.848,3.022c-5.782,0-10.142-0.735-13.08-2.204v-9.882l6.397-0.498v3.413
		c0,2.086,1.991,3.128,5.973,3.128c3.981,0,5.973-1.446,5.973-4.337c0-1.042-0.345-1.895-1.032-2.56
		c-0.688-0.663-1.362-1.113-2.026-1.351c-0.664-0.236-1.456-0.473-2.382-0.711c-0.923-0.237-1.825-0.474-2.701-0.711
		c-0.877-0.237-1.825-0.556-2.843-0.959c-1.02-0.403-2.146-0.983-3.378-1.742c-2.417-1.564-3.625-4.182-3.625-7.856
		c0-3.672,1.302-6.505,3.91-8.496c2.607-1.991,5.889-2.986,9.848-2.986c3.957,0,7.878,0.949,11.765,2.844v8.531l-6.398,0.498v-2.986
		C52.608,31.608,52.063,30.802,50.974,30.375z"/>
	<path fill="#004A87" d="M73.51,51.846c1.515,2.228,3.708,3.341,6.576,3.341c2.867,0,5.699-1.019,8.495-3.057l3.059,5.474
		c-3.367,2.75-7.584,4.124-12.655,4.124c-5.072,0-9.064-1.6-11.979-4.799c-2.916-3.199-4.373-7.927-4.373-14.183
		c0-6.257,1.67-10.96,5.013-14.113c3.34-3.151,7.109-4.728,11.304-4.728s8.093,0.972,11.694,2.915v9.242l-6.541,0.498v-3.412
		c0-1.28-0.461-2.073-1.386-2.382c-0.924-0.307-1.883-0.462-2.88-0.462c-5.734,0-8.602,4.052-8.602,12.157
		C71.235,46.491,71.992,49.618,73.51,51.846z"/>
	<path fill="#004A87" d="M93.628,42.817c0-3.507,0.522-6.552,1.565-9.136c1.042-2.583,2.44-4.562,4.195-5.937
		c3.364-2.559,7.085-3.839,11.162-3.839c2.843,0,5.249,0.462,7.215,1.386s3.508,1.991,4.621,3.199s2.062,2.962,2.844,5.261
		c0.782,2.3,1.173,5.012,1.173,8.141c0,6.541-1.587,11.494-4.763,14.859s-7.241,5.047-12.193,5.047c-4.953,0-8.827-1.6-11.625-4.799
		C95.025,53.8,93.628,49.073,93.628,42.817z M109.981,55.542c5.165,0,7.748-4.17,7.748-12.513c0-4.217-0.581-7.417-1.741-9.597
		c-1.163-2.18-3.105-3.271-5.83-3.271c-2.726,0-4.727,1.043-6.008,3.127c-1.28,2.087-1.92,4.931-1.92,8.532
		c0,6.683,1.232,10.878,3.698,12.584C107.018,55.164,108.368,55.542,109.981,55.542z"/>
	<path fill="#004A87" d="M142.114,10.042v44.789l4.053,0.213v5.688h-16.92v-5.403l2.346-0.213c1.373-0.142,2.062-0.9,2.062-2.275
		V17.792c0-1.042-0.594-1.611-1.777-1.707l-2.489-0.142v-5.9H142.114z"/>
	<path fill="#004A87" d="M180.718,26.394v26.447c0,0.758,0.131,1.279,0.393,1.564c0.259,0.284,0.72,0.451,1.385,0.497l2.274,0.143
		v5.688h-11.304v-4.123l-0.213-0.072c-2.37,3.413-5.616,5.119-9.739,5.119c-4.835,0-8.414-1.54-10.735-4.622
		c-2.323-3.08-3.484-7.298-3.484-12.655c0-6.445,1.565-11.469,4.693-15.072c3.128-3.601,7.82-5.403,14.077-5.403
		C172.092,23.906,176.311,24.735,180.718,26.394z M172.472,49.429V31.015c-1.329-0.615-3.152-0.924-5.476-0.924
		c-3.175,0-5.473,1.279-6.896,3.839c-1.422,2.559-2.133,5.949-2.133,10.166c0,7.679,2.465,11.518,7.394,11.518
		c2.086,0,3.792-0.628,5.119-1.884C171.808,52.475,172.472,51.041,172.472,49.429z"/>
</g>
<path fill="#004A87" d="M240.325,3.272C238.22,1.159,235.414,0,232.44,0c-2.985,0-5.782,1.159-7.888,3.262l-33.533,33.35
	c-0.202,0.194-0.354,0.434-0.456,0.695l-7.589,20.877c-0.239,0.668-0.083,1.436,0.409,1.955c0.371,0.381,0.862,0.593,1.381,0.593
	c0.187,0,0.37-0.028,0.557-0.083l18.875-5.792c0.296-0.092,0.562-0.26,0.787-0.473l35.342-35.343
	c2.104-2.101,3.271-4.909,3.271-7.885C243.586,8.172,242.428,5.376,240.325,3.272L240.325,3.272z M202.019,51.549l-7.072,2.178
	c-0.406-1.214-1.049-2.279-1.927-3.16c-0.76-0.759-1.641-1.343-2.565-1.826l3.222-8.886h4.365v3.79c0,1.056,0.853,1.9,1.9,1.9h3.355
	L202.019,51.549z M229.946,24.048l-23.12,23.119l0.667-3.123c0.122-0.566-0.018-1.14-0.379-1.584
	c-0.361-0.454-0.909-0.704-1.474-0.704h-3.799v-3.799c0-1.048-0.853-1.902-1.899-1.902h-2.993l22.572-22.442l0.019,0.028
	c1.389-1.391,3.244-2.159,5.208-2.159c1.963,0,3.817,0.768,5.198,2.159c1.391,1.39,2.16,3.234,2.16,5.197
	C232.106,20.812,231.347,22.658,229.946,24.048L229.946,24.048z M237.639,16.363l-1.771,1.771c-0.169-2.715-1.298-5.243-3.235-7.182
	c-1.935-1.935-4.465-3.057-7.181-3.233l1.779-1.76V5.95c1.391-1.39,3.233-2.149,5.209-2.149c1.963,0,3.808,0.759,5.199,2.149
	c1.389,1.391,2.157,3.242,2.157,5.207C239.796,13.122,239.037,14.974,237.639,16.363L237.639,16.363z M225.176,15.736
	l-18.979,18.977c-0.741,0.742-0.741,1.946,0,2.688c0.369,0.37,0.851,0.556,1.334,0.556c0.489,0,0.973-0.186,1.343-0.556
	l18.979-18.978c0.743-0.743,0.743-1.947,0-2.687C227.112,14.992,225.915,14.992,225.176,15.736L225.176,15.736z M225.176,15.736"/>
<g>
	<path fill="#0699F4" d="M4.957,18.689V16.92l0.721-0.066c0.422-0.043,0.634-0.248,0.634-0.611V6.082L5.066,6.017V4.159h6.249
		c1.631,0,2.902,0.383,3.813,1.147c0.91,0.765,1.365,1.913,1.365,3.441c0,1.53-0.516,2.721-1.55,3.573
		c-1.034,0.852-2.404,1.278-4.108,1.278H8.978v3.168l2.098,0.066v1.857H4.957z M8.978,11.479h1.573c2.127,0,3.19-0.866,3.19-2.601
		c0-1.048-0.273-1.744-0.819-2.086c-0.546-0.342-1.417-0.514-2.611-0.514H8.978V11.479z"/>
	<path fill="#0699F4" d="M33.001,3.897c1.726,0,3.171,0.611,4.337,1.835c1.165,1.223,1.748,3.092,1.748,5.605
		c0,2.512-0.579,4.413-1.737,5.703c-1.158,1.289-2.724,1.933-4.697,1.933c-1.974,0-3.522-0.641-4.643-1.922
		c-1.123-1.281-1.682-3.146-1.682-5.594c0-1.339,0.196-2.516,0.59-3.528c0.394-1.012,0.91-1.795,1.551-2.349
		C29.764,4.458,31.275,3.897,33.001,3.897z M29.058,11.348c0,3.612,1.252,5.418,3.758,5.418c1.34,0,2.279-0.553,2.818-1.66
		c0.495-0.976,0.743-2.17,0.743-3.583c0-1.267-0.219-2.433-0.656-3.496c-0.248-0.583-0.623-1.041-1.125-1.376
		c-0.502-0.335-1.154-0.503-1.956-0.503c-0.8,0-1.488,0.262-2.064,0.787c-0.576,0.524-0.972,1.158-1.191,1.9
		C29.167,9.578,29.058,10.416,29.058,11.348z"/>
	<path fill="#0699F4" d="M48.961,18.689V16.92l0.721-0.066c0.422-0.043,0.634-0.248,0.634-0.611V6.082l-1.245-0.065V4.159h5.965
		c1.69,0,2.985,0.314,3.889,0.94c0.903,0.626,1.354,1.653,1.354,3.081c0,0.991-0.259,1.807-0.776,2.447
		c-0.517,0.64-1.132,1.107-1.846,1.398c0.525,0.189,0.94,0.633,1.246,1.333l1.573,3.43l1.246,0.043v1.857h-5.397V16.92l0.634-0.066
		c0.335-0.043,0.502-0.175,0.502-0.393c0-0.088-0.029-0.19-0.088-0.307l-1.027-2.185c-0.16-0.364-0.338-0.623-0.535-0.775
		c-0.197-0.153-0.478-0.229-0.841-0.229h-1.988v3.801l1.42,0.066v1.857H48.961z M52.982,10.889h1.901
		c1.792,0,2.688-0.801,2.688-2.404c0-0.917-0.237-1.515-0.71-1.792s-1.234-0.416-2.283-0.416h-1.595V10.889z"/>
	<path fill="#0699F4" d="M74.351,16.243V6.323h-1.704c-0.336,0-0.503,0.225-0.503,0.677v1.027l-2.229-0.153V4.159h11.428v3.715
		l-2.229,0.153V7c0-0.248-0.037-0.423-0.109-0.525c-0.073-0.102-0.248-0.152-0.524-0.152h-1.486v10.443l1.726,0.066v1.857h-6.162
		V16.92l1.159-0.066C74.14,16.811,74.351,16.606,74.351,16.243z"/>
	<path fill="#0699F4" d="M89.93,16.243L93.448,6.06l-1.377-0.131V4.159h5.004l4.457,12.607h0.022l1.245,0.066v1.857h-5.637V16.92
		l0.83-0.066c0.247-0.029,0.415-0.088,0.503-0.175c0.087-0.086,0.094-0.248,0.021-0.48l-0.458-1.354h-5.113l-0.655,1.922
		l1.311,0.066v1.857h-5.047V16.92l0.72-0.066C89.58,16.825,89.798,16.621,89.93,16.243z M95.501,6.606l-2.032,6.228h4.063
		l-1.966-6.228H95.501z"/>
	<path fill="#0699F4" d="M122.289,18.689H111.91V16.92l0.721-0.066c0.423-0.043,0.634-0.248,0.634-0.611V6.082l-1.246-0.065V4.159
		h5.266v1.771l-0.721,0.065c-0.423,0.043-0.634,0.276-0.634,0.699v9.745h3.627c0.204,0,0.339-0.055,0.404-0.163
		c0.066-0.11,0.099-0.288,0.099-0.536V14.21l2.229,0.153V18.689z"/>
</g>
</svg>
